<?xml version="1.0" encoding="UTF-8" standalone="no"?>
<!-- Created with Inkscape (http://www.inkscape.org/) -->

<svg
   xmlns:dc="http://purl.org/dc/elements/1.1/"
   xmlns:cc="http://creativecommons.org/ns#"
   xmlns:rdf="http://www.w3.org/1999/02/22-rdf-syntax-ns#"
   xmlns:svg="http://www.w3.org/2000/svg"
   xmlns="http://www.w3.org/2000/svg"
   xmlns:sodipodi="http://sodipodi.sourceforge.net/DTD/sodipodi-0.dtd"
   xmlns:inkscape="http://www.inkscape.org/namespaces/inkscape"
   width="256"
   height="128"
   viewBox="0 0 256 128"
   id="svg5968"
   version="1.1"
   inkscape:version="0.91 r13725"
   sodipodi:docname="josue-logo.svg"
   inkscape:export-filename="C:\Users\Josue\Documents\TTFiesta\Timer\josue-logo.png"
   inkscape:export-xdpi="90"
   inkscape:export-ydpi="90">
  <defs
     id="defs5970" />
  <sodipodi:namedview
     id="base"
     pagecolor="#141414"
     bordercolor="#666666"
     borderopacity="1.0"
     inkscape:pageopacity="0"
     inkscape:pageshadow="2"
     inkscape:zoom="2.8"
     inkscape:cx="85.639568"
     inkscape:cy="27.572083"
     inkscape:document-units="px"
     inkscape:current-layer="layer1"
     showgrid="false"
     inkscape:window-width="1920"
     inkscape:window-height="1017"
     inkscape:window-x="-8"
     inkscape:window-y="-8"
     inkscape:window-maximized="1"
     units="px" />
  <metadata
     id="metadata5973">
    <rdf:RDF>
      <cc:Work
         rdf:about="">
        <dc:format>image/svg+xml</dc:format>
        <dc:type
           rdf:resource="http://purl.org/dc/dcmitype/StillImage" />
        <dc:title></dc:title>
      </cc:Work>
    </rdf:RDF>
  </metadata>
  <g
     inkscape:label="Layer 1"
     inkscape:groupmode="layer"
     id="layer1"
     transform="translate(0,-924.3622)"
     style="display:inline">
    <flowRoot
       xml:space="preserve"
       id="flowRoot6540"
       style="font-style:normal;font-variant:normal;font-weight:normal;font-stretch:normal;font-size:20px;line-height:125%;font-family:'Source Sans Pro';-inkscape-font-specification:'Source Sans Pro, Normal';text-align:start;letter-spacing:0px;word-spacing:0px;writing-mode:lr-tb;text-anchor:start;fill:#000000;fill-opacity:1;stroke:none;stroke-width:1px;stroke-linecap:butt;stroke-linejoin:miter;stroke-opacity:1"><flowRegion
         id="flowRegion6542"><rect
           id="rect6544"
           width="122.14286"
           height="53.57143"
           x="115.71429"
           y="46.57143" /></flowRegion><flowPara
         id="flowPara6546" /></flowRoot>    <g
       id="g4198"
       transform="translate(-1.6949437,-10.005795)"
       inkscape:export-xdpi="89.648438"
       inkscape:export-ydpi="89.648438"
       style="fill:#424242;fill-opacity:1">
      <g
         style="fill:#424242;fill-opacity:1"
         id="g4188">
        <g
           id="g5964"
           transform="translate(-110.91226,-0.910245)"
           style="fill:#424242;fill-opacity:1;stroke:none">
          <path
             sodipodi:nodetypes="scccccsccs"
             inkscape:connector-curvature="0"
             id="path4260"
             d="m 203.83014,963.81296 c 12.64929,0 25.26373,4.6105 35.26563,13.7129 l -27.13313,27.13454 -5.65796,-5.65654 18.29105,-18.29103 c 1.20304,-1.2018 0.88134,-3.228 -0.63477,-3.998 -6.32566,-3.2118 -13.23074,-4.8184 -20.13479,-4.82027 -2.50626,-8.4e-4 -5.01166,0.2164 -7.4902,0.63855 l -1.54099,-7.92192 c 2.9868,-0.5261 6.00903,-0.79876 9.03512,-0.79876 z"
             style="color:#000000;clip-rule:nonzero;display:inline;overflow:visible;visibility:visible;opacity:1;isolation:auto;mix-blend-mode:normal;color-interpolation:sRGB;color-interpolation-filters:linearRGB;solid-color:#000000;solid-opacity:1;fill:#424242;fill-opacity:1;fill-rule:nonzero;stroke:none;stroke-width:5;stroke-linecap:butt;stroke-linejoin:round;stroke-miterlimit:4;stroke-dasharray:none;stroke-dashoffset:0;stroke-opacity:1;color-rendering:auto;image-rendering:auto;shape-rendering:auto;text-rendering:auto;enable-background:accumulate" />
          <path
             sodipodi:nodetypes="ccccccccccc"
             inkscape:connector-curvature="0"
             id="path4262"
             d="m 192.56838,963.62939 2.10749,10.83983 c -3.5683,0.76711 -7.04186,1.93062 -10.30472,3.57225 -0.60806,0.30637 -0.73879,1.11765 -0.25783,1.5996 l 14.57326,14.57326 4.43652,4.43652 8.48537,8.48535 -7.77931,7.7793 -35.74638,-35.74777 -1.67582,-1.67568 c 7.26286,-6.97403 16.31089,-11.76932 26.16022,-13.86146 z"
             style="color:#000000;clip-rule:nonzero;display:inline;overflow:visible;visibility:visible;opacity:1;isolation:auto;mix-blend-mode:normal;color-interpolation:sRGB;color-interpolation-filters:linearRGB;solid-color:#000000;solid-opacity:1;fill:#424242;fill-opacity:1;fill-rule:nonzero;stroke:none;stroke-width:5;stroke-linecap:butt;stroke-linejoin:round;stroke-miterlimit:4;stroke-dasharray:none;stroke-dashoffset:0;stroke-opacity:1;color-rendering:auto;image-rendering:auto;shape-rendering:auto;text-rendering:auto;enable-background:accumulate" />
        </g>
        <g
           style="font-style:normal;font-variant:normal;font-weight:normal;font-stretch:normal;font-size:25px;line-height:89.99999762%;font-family:'Segoe MDL2 Assets';-inkscape-font-specification:'Segoe MDL2 Assets';text-align:start;letter-spacing:0px;word-spacing:0px;writing-mode:lr-tb;text-anchor:start;fill:#424242;fill-opacity:1;stroke:none;stroke-width:1px;stroke-linecap:butt;stroke-linejoin:miter;stroke-opacity:1"
           id="text6548">
          <path
             d="m 143.90984,981.57959 q 0,2.39258 -1.46485,3.68652 -1.45263,1.29395 -3.90625,1.29395 -0.58594,0 -1.5625,-0.10986 -0.97656,-0.0977 -1.63574,-0.24415 l 0,-2.2583 0.13428,0 q 0.50049,0.1709 1.23291,0.35401 0.73242,0.1831 1.50146,0.1831 1.12305,0 1.78223,-0.25634 0.67139,-0.25635 0.98877,-0.73243 0.32959,-0.48828 0.41504,-1.19629 0.0976,-0.708 0.0976,-1.63574 l 0,-10.60791 -3.84521,0 0,-1.92871 6.26221,0 0,13.45215 z"
             id="path4210"
             inkscape:connector-curvature="0"
             style="fill:#424242;fill-opacity:1" />
          <path
             d="m 160.05974,979.49219 q 0,3.33252 -1.70899,5.26123 -1.70898,1.92871 -4.57763,1.92871 -2.89307,0 -4.60205,-1.92871 -1.69678,-1.92871 -1.69678,-5.26123 0,-3.33252 1.69678,-5.26123 1.70898,-1.94092 4.60205,-1.94092 2.86865,0 4.57763,1.94092 1.70899,1.92871 1.70899,5.26123 z m -2.36817,0 q 0,-2.64893 -1.03759,-3.93067 -1.0376,-1.29394 -2.88086,-1.29394 -1.86768,0 -2.90528,1.29394 -1.02539,1.28174 -1.02539,3.93067 0,2.56347 1.0376,3.89404 1.0376,1.31836 2.89307,1.31836 1.83105,0 2.86865,-1.30615 1.0498,-1.31836 1.0498,-3.90625 z"
             id="path4212"
             inkscape:connector-curvature="0"
             style="fill:#424242;fill-opacity:1" />
          <path
             d="m 173.3654,982.37305 q 0,1.86767 -1.55029,3.06396 -1.53809,1.19629 -4.21143,1.19629 -1.51367,0 -2.7832,-0.354 -1.25732,-0.36621 -2.11182,-0.79346 l 0,-2.57568 0.12207,0 q 1.08643,0.81787 2.417,1.30615 1.33056,0.47607 2.55127,0.47607 1.51367,0 2.36816,-0.48828 0.85449,-0.48828 0.85449,-1.53808 0,-0.80567 -0.46386,-1.22071 -0.46387,-0.41504 -1.78223,-0.70801 -0.48828,-0.10986 -1.28174,-0.25634 -0.78125,-0.14649 -1.42822,-0.31739 -1.79444,-0.47607 -2.55127,-1.3916 -0.74463,-0.92773 -0.74463,-2.27051 0,-0.84228 0.3418,-1.58691 0.354,-0.74463 1.06201,-1.33057 0.68359,-0.57373 1.7334,-0.90332 1.06201,-0.34179 2.36816,-0.34179 1.2207,0 2.46582,0.30517 1.25732,0.29297 2.0874,0.72022 l 0,2.45361 -0.12207,0 q -0.8789,-0.64697 -2.13623,-1.08642 -1.25732,-0.45166 -2.46582,-0.45166 -1.25732,0 -2.12402,0.48828 -0.8667,0.47607 -0.8667,1.42822 0,0.84228 0.5249,1.26953 0.5127,0.42725 1.66016,0.6958 0.63476,0.14649 1.41601,0.29297 0.79346,0.14648 1.31836,0.26855 1.59912,0.36622 2.46582,1.25733 0.8667,0.90332 0.8667,2.39258 z"
             id="path4214"
             inkscape:connector-curvature="0"
             style="fill:#424242;fill-opacity:1" />
          <path
             d="m 187.96501,986.30371 -2.29492,0 0,-1.51367 q -1.15967,0.91553 -2.22168,1.40381 -1.06201,0.48828 -2.34375,0.48828 -2.14844,0 -3.34473,-1.30615 -1.19629,-1.31836 -1.19629,-3.85743 l 0,-8.85009 2.29493,0 0,7.76367 q 0,1.0376 0.0977,1.78223 0.0977,0.73242 0.41504,1.25732 0.32959,0.53711 0.85449,0.78125 0.52491,0.24414 1.52588,0.24414 0.89112,0 1.94092,-0.46387 1.06201,-0.46386 1.97754,-1.18408 l 0,-10.18066 2.29492,0 0,13.63525 z"
             id="path4216"
             inkscape:connector-curvature="0"
             style="fill:#424242;fill-opacity:1" />
          <path
             d="m 203.89519,979.72412 -10.04639,0 q 0,1.25733 0.37842,2.19727 0.37842,0.92773 1.0376,1.52588 0.63476,0.58593 1.50146,0.8789 0.87891,0.29297 1.92871,0.29297 1.3916,0 2.79541,-0.54932 1.41602,-0.56152 2.01416,-1.09863 l 0.12207,0 0,2.50244 q -1.15967,0.48828 -2.36816,0.81787 -1.2085,0.32959 -2.53906,0.32959 -3.39356,0 -5.29786,-1.83105 -1.90429,-1.84326 -1.90429,-5.22461 0,-3.34473 1.81885,-5.31006 1.83105,-1.96533 4.80957,-1.96533 2.75878,0 4.24804,1.61133 1.50147,1.61133 1.50147,4.57763 l 0,1.24512 z m -2.23389,-1.75781 q -0.0122,-1.80664 -0.91553,-2.79541 -0.89111,-0.98877 -2.72216,-0.98877 -1.84327,0 -2.9419,1.08642 -1.08642,1.08643 -1.23291,2.69776 l 7.8125,0 z m 0.28076,-12.12158 -3.33252,4.56543 -1.81884,0 2.18505,-4.56543 2.96631,0 z"
             id="path4218"
             inkscape:connector-curvature="0"
             style="fill:#424242;fill-opacity:1" />
          <path
             d="m 152.60124,999.73389 q 0,2.47801 -1.08642,4.49221 -1.07422,2.0141 -2.86866,3.125 -1.24511,0.769 -2.7832,1.1108 -1.52588,0.3418 -4.02832,0.3418 l -4.58984,0 0,-18.17626 4.54101,0 q 2.66114,0 4.22364,0.39063 1.5747,0.37841 2.66113,1.0498 1.85547,1.15967 2.89306,3.08838 1.0376,1.92871 1.0376,4.57764 z m -2.52685,-0.0366 q 0,-2.13624 -0.74463,-3.60108 -0.74463,-1.46484 -2.22168,-2.30713 -1.07422,-0.61035 -2.28272,-0.84228 -1.20849,-0.24414 -2.89306,-0.24414 l -2.27051,0 0,14.02584 2.27051,0 q 1.7456,0 3.03955,-0.2563 1.30615,-0.2564 2.39258,-0.9522 1.35498,-0.8667 2.02636,-2.2827 0.6836,-1.416 0.6836,-3.54001 z"
             id="path4220"
             inkscape:connector-curvature="0"
             style="fill:#424242;fill-opacity:1" />
          <path
             d="m 167.65251,1008.8037 -2.29492,0 0,-1.5137 q -1.15967,0.9156 -2.22168,1.4038 -1.06201,0.4883 -2.34375,0.4883 -2.14844,0 -3.34473,-1.3061 -1.19629,-1.3184 -1.19629,-3.8574 l 0,-8.85014 2.29493,0 0,7.76364 q 0,1.0376 0.0977,1.7823 0.0977,0.7324 0.41504,1.2573 0.32959,0.5371 0.85449,0.7812 0.52491,0.2442 1.52588,0.2442 0.89112,0 1.94092,-0.4639 1.06201,-0.4639 1.97754,-1.1841 l 0,-10.18064 2.29492,0 0,13.63524 z"
             id="path4222"
             inkscape:connector-curvature="0"
             style="fill:#424242;fill-opacity:1" />
          <path
             d="m 179.50554,992.03125 -0.12207,0 q -0.37842,-0.10986 -0.98877,-0.21973 -0.61035,-0.12207 -1.07422,-0.12207 -1.47705,0 -2.14844,0.65918 -0.65918,0.64697 -0.65918,2.35596 l 0,0.46387 4.13819,0 0,1.92871 -4.06494,0 0,11.70653 -2.29493,0 0,-11.70653 -1.55029,0 0,-1.92871 1.55029,0 0,-0.45166 q 0,-2.4292 1.2085,-3.72315 1.2085,-1.30615 3.49121,-1.30615 0.76904,0 1.3794,0.0732 0.62255,0.0732 1.13525,0.1709 l 0,2.09961 z"
             id="path4224"
             inkscape:connector-curvature="0"
             style="fill:#424242;fill-opacity:1" />
          <path
             d="m 188.2946,992.03125 -0.12207,0 q -0.37842,-0.10986 -0.98877,-0.21973 -0.61035,-0.12207 -1.07422,-0.12207 -1.47705,0 -2.14843,0.65918 -0.65918,0.64697 -0.65918,2.35596 l 0,0.46387 4.13818,0 0,1.92871 -4.06494,0 0,11.70653 -2.29492,0 0,-11.70653 -1.5503,0 0,-1.92871 1.5503,0 0,-0.45166 q 0,-2.4292 1.20849,-3.72315 1.2085,-1.30615 3.49121,-1.30615 0.76905,0 1.3794,0.0732 0.62256,0.0732 1.13525,0.1709 l 0,2.09961 z"
             id="path4226"
             inkscape:connector-curvature="0"
             style="fill:#424242;fill-opacity:1" />
        </g>
      </g>
      <g
         style="font-style:normal;font-variant:normal;font-weight:normal;font-stretch:normal;font-size:12.5px;line-height:125%;font-family:'Segoe MDL2 Assets';-inkscape-font-specification:'Segoe MDL2 Assets';text-align:start;letter-spacing:0px;word-spacing:0px;writing-mode:lr-tb;text-anchor:start;fill:#424242;fill-opacity:1;stroke:none;stroke-width:1px;stroke-linecap:butt;stroke-linejoin:miter;stroke-opacity:1"
         id="text3368">
        <path
           d="m 84.12915,1022.4141 -2.36206,9.0881 -1.361084,0 -1.910401,-7.5439 -1.867675,7.5439 -1.330567,0 -2.404785,-9.0881 1.239014,0 1.9104,7.5561 1.879883,-7.5561 1.226807,0 1.898193,7.6294 1.898193,-7.6294 1.184082,0 z"
           id="path4229"
           inkscape:connector-curvature="0"
           style="fill:#424242;fill-opacity:1" />
        <path
           d="m 90.910156,1028.2124 -5.023193,0 q 0,0.6287 0.189209,1.0986 0.189209,0.4639 0.518799,0.763 0.317383,0.2929 0.750732,0.4394 0.439453,0.1465 0.964356,0.1465 0.6958,0 1.397705,-0.2746 0.708007,-0.2808 1.00708,-0.5494 l 0.06104,0 0,1.2513 q -0.579834,0.2441 -1.184082,0.4089 -0.604248,0.1648 -1.269531,0.1648 -1.696778,0 -2.648926,-0.9155 -0.952149,-0.9217 -0.952149,-2.6123 0,-1.6724 0.909424,-2.6551 0.915528,-0.9826 2.404785,-0.9826 1.379395,0 2.124024,0.8056 0.750732,0.8057 0.750732,2.2888 l 0,0.6226 z m -1.116943,-0.8789 q -0.0061,-0.9033 -0.457764,-1.3977 -0.445556,-0.4944 -1.361084,-0.4944 -0.921631,0 -1.470947,0.5432 -0.543213,0.5432 -0.616455,1.3489 l 3.90625,0 z"
           id="path4231"
           inkscape:connector-curvature="0"
           style="fill:#424242;fill-opacity:1" />
        <path
           d="m 98.649414,1028.0415 q 0,0.8545 -0.244141,1.5381 -0.238037,0.6836 -0.646972,1.1475 -0.43335,0.4821 -0.952149,0.7263 -0.518798,0.238 -1.141357,0.238 -0.579834,0 -1.013184,-0.1404 -0.433349,-0.1343 -0.854492,-0.3662 l -0.07324,0.3174 -1.074219,0 0,-9.4971 1.147461,0 0,3.3936 q 0.482178,-0.3967 1.025391,-0.647 0.543213,-0.2563 1.220703,-0.2563 1.208496,0 1.904297,0.9277 0.701904,0.9277 0.701904,2.6184 z m -1.184082,0.03 q 0,-1.2207 -0.402832,-1.8493 -0.402832,-0.6348 -1.300049,-0.6348 -0.500488,0 -1.013183,0.2197 -0.512696,0.2136 -0.952149,0.5554 l 0,3.9063 q 0.488281,0.2197 0.836182,0.3052 0.354004,0.085 0.79956,0.085 0.952149,0 1.489258,-0.6225 0.543213,-0.6287 0.543213,-1.9654 z"
           id="path4233"
           inkscape:connector-curvature="0"
           style="fill:#424242;fill-opacity:1" />
        <path
           d="m 112.60205,1026.9673 q 0,1.239 -0.54321,2.2461 -0.53711,1.0071 -1.43433,1.5625 -0.62256,0.3845 -1.3916,0.5554 -0.76294,0.1709 -2.01416,0.1709 l -2.29492,0 0,-9.0881 2.27051,0 q 1.33056,0 2.11181,0.1953 0.78736,0.1892 1.33057,0.5249 0.92773,0.5798 1.44653,1.5442 0.5188,0.9643 0.5188,2.2888 z m -1.26343,-0.018 q 0,-1.0681 -0.37231,-1.8006 -0.37232,-0.7324 -1.11084,-1.1535 -0.53711,-0.3052 -1.14136,-0.4212 -0.60425,-0.122 -1.44653,-0.122 l -1.13526,0 0,7.0129 1.13526,0 q 0.8728,0 1.51977,-0.1282 0.65308,-0.1281 1.19629,-0.476 0.67749,-0.4334 1.01319,-1.1414 0.34179,-0.708 0.34179,-1.77 z"
           id="path4235"
           inkscape:connector-curvature="0"
           style="fill:#424242;fill-opacity:1" />
        <path
           d="m 120.18262,1028.2124 -5.0232,0 q 0,0.6287 0.18921,1.0986 0.18921,0.4639 0.5188,0.763 0.31738,0.2929 0.75073,0.4394 0.43946,0.1465 0.96436,0.1465 0.6958,0 1.3977,-0.2746 0.70801,-0.2808 1.00708,-0.5494 l 0.061,0 0,1.2513 q -0.57983,0.2441 -1.18408,0.4089 -0.60425,0.1648 -1.26953,0.1648 -1.69678,0 -2.64893,-0.9155 -0.95215,-0.9217 -0.95215,-2.6123 0,-1.6724 0.90943,-2.6551 0.91552,-0.9826 2.40478,-0.9826 1.3794,0 2.12402,0.8056 0.75074,0.8057 0.75074,2.2888 l 0,0.6226 z m -1.11695,-0.8789 q -0.006,-0.9033 -0.45776,-1.3977 -0.44556,-0.4944 -1.36108,-0.4944 -0.92163,0 -1.47095,0.5432 -0.54321,0.5432 -0.61646,1.3489 l 3.90625,0 z"
           id="path4237"
           inkscape:connector-curvature="0"
           style="fill:#424242;fill-opacity:1" />
        <path
           d="m 127.81812,1024.6846 -2.75879,6.8176 -1.15357,0 -2.74048,-6.8176 1.24512,0 2.11182,5.426 2.0935,-5.426 1.2024,0 z"
           id="path4239"
           inkscape:connector-curvature="0"
           style="fill:#424242;fill-opacity:1" />
        <path
           d="m 134.92871,1028.2124 -5.02319,0 q 0,0.6287 0.18921,1.0986 0.18921,0.4639 0.5188,0.763 0.31738,0.2929 0.75073,0.4394 0.43945,0.1465 0.96435,0.1465 0.6958,0 1.39771,-0.2746 0.70801,-0.2808 1.00708,-0.5494 l 0.061,0 0,1.2513 q -0.57983,0.2441 -1.18408,0.4089 -0.60425,0.1648 -1.26953,0.1648 -1.69678,0 -2.64893,-0.9155 -0.95214,-0.9217 -0.95214,-2.6123 0,-1.6724 0.90942,-2.6551 0.91553,-0.9826 2.40479,-0.9826 1.37939,0 2.12402,0.8056 0.75073,0.8057 0.75073,2.2888 l 0,0.6226 z m -1.11694,-0.8789 q -0.006,-0.9033 -0.45777,-1.3977 -0.44555,-0.4944 -1.36108,-0.4944 -0.92163,0 -1.47095,0.5432 -0.54321,0.5432 -0.61645,1.3489 l 3.90625,0 z"
           id="path4241"
           inkscape:connector-curvature="0"
           style="fill:#424242;fill-opacity:1" />
        <path
           d="m 137.82788,1031.5022 -1.14746,0 0,-9.4971 1.14746,0 0,9.4971 z"
           id="path4243"
           inkscape:connector-curvature="0"
           style="fill:#424242;fill-opacity:1" />
        <path
           d="m 145.87231,1028.0964 q 0,1.6663 -0.85449,2.6307 -0.85449,0.9643 -2.28882,0.9643 -1.44653,0 -2.30102,-0.9643 -0.84839,-0.9644 -0.84839,-2.6307 0,-1.6662 0.84839,-2.6306 0.85449,-0.9704 2.30102,-0.9704 1.43433,0 2.28882,0.9704 0.85449,0.9644 0.85449,2.6306 z m -1.18408,0 q 0,-1.3244 -0.5188,-1.9653 -0.5188,-0.647 -1.44043,-0.647 -0.93383,0 -1.45263,0.647 -0.5127,0.6409 -0.5127,1.9653 0,1.2818 0.5188,1.9471 0.5188,0.6591 1.44653,0.6591 0.91553,0 1.43433,-0.653 0.5249,-0.6592 0.5249,-1.9532 z"
           id="path4245"
           inkscape:connector-curvature="0"
           style="fill:#424242;fill-opacity:1" />
        <path
           d="m 153.6543,1028.011 q 0,0.8301 -0.23804,1.5198 -0.23804,0.6836 -0.67139,1.1596 -0.40283,0.4517 -0.95215,0.7019 -0.54321,0.2442 -1.15356,0.2442 -0.53101,0 -0.96436,-0.116 -0.42724,-0.116 -0.8728,-0.3601 l 0,2.8564 -1.14746,0 0,-9.3322 1.14746,0 0,0.7141 q 0.45777,-0.3845 1.02539,-0.6409 0.57373,-0.2624 1.22071,-0.2624 1.23291,0 1.9165,0.9338 0.6897,0.9277 0.6897,2.5818 z m -1.18409,0.031 q 0,-1.2329 -0.42114,-1.8433 -0.42114,-0.6103 -1.29394,-0.6103 -0.49439,0 -0.99488,0.2136 -0.50048,0.2136 -0.95825,0.5615 l 0,3.8636 q 0.48828,0.2197 0.83618,0.299 0.35401,0.079 0.79956,0.079 0.95826,0 1.49537,-0.647 0.5371,-0.647 0.5371,-1.9165 z"
           id="path4247"
           inkscape:connector-curvature="0"
           style="fill:#424242;fill-opacity:1" />
        <path
           d="m 165.39136,1031.5022 -1.14746,0 0,-3.8818 q 0,-0.4395 -0.0427,-0.8484 -0.0366,-0.409 -0.16479,-0.6531 -0.14038,-0.2625 -0.40284,-0.3967 -0.26245,-0.1343 -0.75683,-0.1343 -0.48218,0 -0.96436,0.2441 -0.48217,0.2381 -0.96435,0.6104 0.0183,0.1404 0.0305,0.3296 0.0122,0.1831 0.0122,0.3662 l 0,4.364 -1.14746,0 0,-3.8818 q 0,-0.4517 -0.0427,-0.8545 -0.0366,-0.409 -0.1648,-0.6531 -0.14038,-0.2625 -0.40283,-0.3906 -0.26245,-0.1343 -0.75684,-0.1343 -0.46997,0 -0.94604,0.2319 -0.46997,0.232 -0.93994,0.5921 l 0,5.0903 -1.14746,0 0,-6.8176 1.14746,0 0,0.7568 q 0.53711,-0.4456 1.06811,-0.6958 0.53711,-0.2502 1.14136,-0.2502 0.6958,0 1.17798,0.2929 0.48828,0.293 0.72632,0.8118 0.6958,-0.5859 1.26953,-0.8423 0.57373,-0.2624 1.22681,-0.2624 1.12304,0 1.65405,0.6836 0.53711,0.6774 0.53711,1.8981 l 0,4.4251 z"
           id="path4249"
           inkscape:connector-curvature="0"
           style="fill:#424242;fill-opacity:1" />
        <path
           d="m 173.30762,1028.2124 -5.0232,0 q 0,0.6287 0.18921,1.0986 0.18921,0.4639 0.5188,0.763 0.31738,0.2929 0.75073,0.4394 0.43946,0.1465 0.96436,0.1465 0.6958,0 1.3977,-0.2746 0.70801,-0.2808 1.00708,-0.5494 l 0.061,0 0,1.2513 q -0.57983,0.2441 -1.18408,0.4089 -0.60425,0.1648 -1.26953,0.1648 -1.69678,0 -2.64893,-0.9155 -0.95215,-0.9217 -0.95215,-2.6123 0,-1.6724 0.90943,-2.6551 0.91552,-0.9826 2.40478,-0.9826 1.3794,0 2.12402,0.8056 0.75074,0.8057 0.75074,2.2888 l 0,0.6226 z m -1.11695,-0.8789 q -0.006,-0.9033 -0.45776,-1.3977 -0.44556,-0.4944 -1.36108,-0.4944 -0.92163,0 -1.47095,0.5432 -0.54321,0.5432 -0.61646,1.3489 l 3.90625,0 z"
           id="path4251"
           inkscape:connector-curvature="0"
           style="fill:#424242;fill-opacity:1" />
        <path
           d="m 180.7478,1031.5022 -1.14746,0 0,-3.8818 q 0,-0.47 -0.0549,-0.8789 -0.0549,-0.4151 -0.20142,-0.647 -0.15258,-0.2564 -0.43945,-0.3784 -0.28686,-0.1282 -0.74463,-0.1282 -0.46997,0 -0.98266,0.2319 -0.5127,0.232 -0.98267,0.5921 l 0,5.0903 -1.14746,0 0,-6.8176 1.14746,0 0,0.7568 q 0.53711,-0.4456 1.11084,-0.6958 0.57373,-0.2502 1.17798,-0.2502 1.10473,0 1.68457,0.6652 0.57983,0.6653 0.57983,1.9165 l 0,4.4251 z"
           id="path4253"
           inkscape:connector-curvature="0"
           style="fill:#424242;fill-opacity:1" />
        <path
           d="m 186.49731,1031.4412 q -0.32348,0.085 -0.708,0.1403 -0.37842,0.055 -0.67749,0.055 -1.0437,0 -1.58692,-0.5615 -0.54321,-0.5616 -0.54321,-1.8006 l 0,-3.6255 -0.77515,0 0,-0.9643 0.77515,0 0,-1.9593 1.14746,0 0,1.9593 2.36816,0 0,0.9643 -2.36816,0 0,3.1067 q 0,0.5371 0.0244,0.8423 0.0244,0.2991 0.1709,0.5615 0.13428,0.2442 0.36621,0.3601 0.23804,0.1099 0.72022,0.1099 0.28076,0 0.58594,-0.079 0.30517,-0.085 0.43945,-0.1403 l 0.061,0 0,1.0315 z"
           id="path4255"
           inkscape:connector-curvature="0"
           style="fill:#424242;fill-opacity:1" />
      </g>
    </g>
  </g>
</svg>
