<?xml version="1.0" encoding="UTF-8" standalone="no"?>
<!-- Created with Inkscape (http://www.inkscape.org/) -->

<svg
   xmlns:dc="http://purl.org/dc/elements/1.1/"
   xmlns:cc="http://creativecommons.org/ns#"
   xmlns:rdf="http://www.w3.org/1999/02/22-rdf-syntax-ns#"
   xmlns:svg="http://www.w3.org/2000/svg"
   xmlns="http://www.w3.org/2000/svg"
   xmlns:sodipodi="http://sodipodi.sourceforge.net/DTD/sodipodi-0.dtd"
   xmlns:inkscape="http://www.inkscape.org/namespaces/inkscape"
   width="256"
   height="104.79315"
   viewBox="0 0 256 104.79315"
   id="svg4257"
   version="1.1"
   inkscape:version="0.91 r13725"
   sodipodi:docname="ttfiesta_logo2.svg">
  <defs
     id="defs4259" />
  <sodipodi:namedview
     id="base"
     pagecolor="#212121"
     bordercolor="#666666"
     borderopacity="1.0"
     inkscape:pageopacity="0"
     inkscape:pageshadow="2"
     inkscape:zoom="1.4"
     inkscape:cx="251.28754"
     inkscape:cy="69.468572"
     inkscape:document-units="px"
     inkscape:current-layer="layer1"
     showgrid="false"
     fit-margin-top="0"
     fit-margin-left="0"
     fit-margin-right="0"
     fit-margin-bottom="0"
     units="px"
     inkscape:window-width="1920"
     inkscape:window-height="1017"
     inkscape:window-x="-8"
     inkscape:window-y="-8"
     inkscape:window-maximized="1" />
  <metadata
     id="metadata4262">
    <rdf:RDF>
      <cc:Work
         rdf:about="">
        <dc:format>image/svg+xml</dc:format>
        <dc:type
           rdf:resource="http://purl.org/dc/dcmitype/StillImage" />
        <dc:title></dc:title>
      </cc:Work>
    </rdf:RDF>
  </metadata>
  <g
     inkscape:label="Layer 1"
     inkscape:groupmode="layer"
     id="layer1"
     transform="translate(-64.789317,-624.49031)">
    <path
       style="fill:#424242;fill-opacity:1"
       d="m 80.94854,728.17701 c -0.172111,-0.60854 -0.336352,-3.84295 -0.36498,-7.18756 -0.05121,-5.98213 -0.0731,-6.12375 -1.345199,-8.6997 -1.251419,-2.53408 -2.223583,-3.59077 -6.839274,-7.43391 -2.785438,-2.31922 -3.91023,-4.70681 -3.624676,-7.69404 0.303358,-3.1735 1.799952,-6.90565 2.76917,-6.90565 0.9574,0 0.947506,0.11937 -0.250102,3.01757 -1.22667,2.96853 -1.32379,5.93055 -0.251909,7.68286 0.418981,0.68495 1.901997,2.22392 3.295593,3.41992 3.813483,3.27279 5.131753,4.77024 6.341845,7.20385 1.025008,2.06137 1.117685,2.68121 1.353598,9.05273 0.139293,3.76191 0.387497,7.24721 0.551574,7.74511 0.242869,0.737 0.147662,0.90527 -0.512202,0.90527 -0.539275,0 -0.915235,-0.37028 -1.123438,-1.10645 z m -4.394155,-4.56565 c -0.601942,-0.90677 -1.352556,-2.37796 -1.668031,-3.26933 -0.687797,-1.94336 -0.750004,-6.90224 -0.117974,-9.40445 0.525275,-2.07956 1.406969,-2.16565 1.266037,-0.12362 -0.370843,5.3733 -0.191308,7.93541 0.779681,11.12673 0.555465,1.82563 0.970514,3.31934 0.922332,3.31934 -0.04818,0 -0.580103,-0.7419 -1.182045,-1.64867 z m 2.462115,1.34688 c -0.121157,-0.19542 -0.593393,-1.69753 -1.049413,-3.33801 -0.817542,-2.94102 -1.022669,-6.86736 -0.461462,-8.83285 l 0.287202,-1.00586 0.479766,0.87883 c 0.263871,0.48335 0.492687,2.02231 0.508481,3.41991 0.01579,1.39761 0.167837,3.98953 0.337873,5.75985 0.312763,3.25628 0.296177,3.76111 -0.102447,3.11813 z m 0.986543,-16.7499 c -0.657644,-0.78994 2.53362,-5.42138 7.241053,-10.50884 6.999046,-7.56406 11.644736,-14.42577 14.156684,-20.90946 2.51289,-6.48614 2.84719,-8.47954 3.1583,-18.83275 0.15811,-5.26155 1.2729,-9.89836 1.47967,-10.1045 1.07215,-1.0688 0.40187,0.5882 0.12682,9.81354 -0.24546,8.23253 -0.41286,9.95312 -1.29467,13.30696 -2.74984,10.45855 -6.409119,16.46924 -17.764891,29.18039 -1.731911,1.93862 -3.89123,4.66901 -4.798489,6.06752 -0.907258,1.39851 -1.692845,2.54274 -1.745745,2.54274 -0.0529,0 -0.304327,-0.25001 -0.558732,-0.5556 z m -2.713035,-2.84848 c -0.12442,-0.32322 1.524153,-3.94 3.663492,-8.03728 5.298797,-10.14831 5.409445,-10.51304 6.100282,-20.10863 0.31729,-4.4071 0.660063,-8.09582 0.761721,-8.19716 0.101653,-0.10134 0.485397,-0.0693 0.852764,0.0713 0.541085,0.20699 0.617665,0.58969 0.403235,2.01515 -0.14558,0.96779 -0.41525,4.45526 -0.599263,7.74993 -0.407903,7.30341 -1.410941,10.58877 -5.424274,17.76671 -1.467094,2.62392 -3.122299,5.79608 -3.678235,7.04923 -1.009731,2.27608 -1.653088,2.79912 -2.079722,1.69079 z m 53.123082,-26.32982 0,-25.71048 2.45841,-0.28444 c 1.35213,-0.15644 2.60867,-0.12895 2.79231,0.0611 0.18364,0.19004 1.06719,1.69955 1.96345,3.35446 l 1.62956,3.00895 -2.67331,5.09206 -2.67331,5.09205 2.63305,5.63767 2.63306,5.63767 -2.43141,3.9106 c -1.91336,3.07738 -2.34276,4.05213 -2.01533,4.57481 0.22886,0.3653 1.43957,2.60969 2.69049,4.98752 l 2.27439,4.32332 -1.71459,2.18652 c -1.48507,1.89384 -2.05793,2.2971 -4.27959,3.0126 -1.41076,0.45435 -2.7275,0.82608 -2.9261,0.82608 -0.20861,0 -0.36108,-10.85643 -0.36108,-25.71047 z m 4.64139,17.06009 c 0,-1.0046 -0.16184,-1.20703 -0.96501,-1.20703 -1.29194,0 -2.00002,1.11655 -1.2667,1.9974 0.30067,0.36117 0.92581,0.60266 1.38919,0.53666 0.64032,-0.0912 0.84252,-0.40969 0.84252,-1.32703 z m 1.2108,-16.89843 c 0,-1.01749 -0.15757,-1.20703 -1.00347,-1.20703 -0.64715,0 -1.05339,0.25837 -1.14404,0.7276 -0.2358,1.22063 0.26362,1.95315 1.23761,1.81527 0.71322,-0.10096 0.9099,-0.38971 0.9099,-1.33584 z m -0.67949,-20.21775 c -0.14562,-1.26159 -1.50144,-1.72038 -2.28889,-0.77452 -0.75427,0.90601 -0.12078,1.88096 1.22217,1.88096 1.06491,0 1.18058,-0.11998 1.06672,-1.10644 z m -44.725451,41.76877 0,-2.86628 2.127109,-2.50253 c 1.169912,-1.37639 2.486655,-2.98389 2.926099,-3.57221 l 0.798986,-1.06969 1.699176,2.61936 1.699181,2.61937 -1.61006,3.19228 c -1.735816,3.44162 -2.058958,3.68491 -5.521592,4.15705 l -2.118899,0.28892 z m 5.678472,-3.47928 c 0.707907,-0.85033 0.0017,-1.978 -1.238878,-1.978 -1.24049,0 -1.946781,1.12767 -1.238874,1.978 0.291782,0.35047 0.849278,0.63724 1.238874,0.63724 0.3896,0 0.947096,-0.28677 1.238878,-0.63724 z m 103.293389,5.45238 c 0,-0.96555 -2.54339,-6.86544 -4.23008,-9.81253 -1.00316,-1.75276 -1.82392,-3.24646 -1.82392,-3.31933 0,-0.0729 1.22593,-0.14571 2.7243,-0.16187 4.80733,-0.0518 6.98877,-0.52406 8.03796,-1.74003 2.08708,-2.41882 0.90151,-5.81516 -6.07535,-17.40437 -4.20838,-6.99051 -5.0904,-8.7287 -5.08988,-10.03065 8.6e-4,-1.90386 1.04002,-4.06252 2.4522,-5.09346 1.19645,-0.87345 3.89248,-1.58165 4.87738,-1.2812 0.36894,0.11255 1.76496,1.70589 3.10225,3.54077 l 2.43143,3.33614 -0.98181,4.9966 c -0.53999,2.74813 -0.98249,5.2195 -0.98335,5.49193 -8.6e-4,0.27242 1.86006,1.6959 4.13535,3.16328 2.2753,1.46738 4.17708,2.70281 4.22619,2.74538 0.0491,0.0426 -0.35431,2.68295 -0.89649,5.86749 -0.54218,3.18454 -0.94437,5.83136 -0.89375,5.88181 0.0506,0.0505 2.22684,1.09171 4.83605,2.31389 l 4.74402,2.22215 -1.06399,2.33501 c -0.58519,1.28426 -1.53133,3.36064 -2.10255,4.61417 -0.84498,1.85434 -1.25871,2.32304 -2.21972,2.51464 -2.12265,0.42321 -15.20624,0.26849 -15.20624,-0.17982 z m 14.69836,-6.2664 c 0.8639,-0.33047 0.81056,-2.04969 -0.0783,-2.52391 -1.4927,-0.79638 -2.82913,1.08409 -1.62415,2.28532 0.54975,0.54804 0.80136,0.5833 1.70246,0.23859 z m -5.02806,-16.03138 c 0.81254,-0.976 0.12176,-2.29922 -1.12501,-2.155 -1.08798,0.12585 -1.55979,1.03099 -1.12551,2.1592 0.28854,0.74957 1.62507,0.74708 2.25052,-0.004 z m -6.81703,-18.15848 c 0.71697,-0.86121 -0.004,-1.97799 -1.27734,-1.97799 -0.98817,0 -1.44724,0.91838 -1.01734,2.03521 0.29715,0.77196 1.63209,0.73867 2.29468,-0.0572 z m 16.1159,40.58923 c 0,-0.21098 0.45679,-1.50428 1.0151,-2.874 0.5583,-1.36972 1.45911,-3.66637 2.00179,-5.10366 l 0.9867,-2.61325 -4.82699,-2.41217 c -2.65485,-1.32669 -4.82699,-2.65745 -4.82699,-2.95725 0,-0.2998 0.45405,-2.76754 1.009,-5.48387 0.55495,-2.71632 1.00899,-4.98808 1.00899,-5.04834 0,-0.0603 -1.81523,-1.22794 -4.03384,-2.59486 -2.21862,-1.36691 -4.1366,-2.65104 -4.26219,-2.85362 -0.12559,-0.20257 0.26312,-2.69679 0.8638,-5.54271 l 1.09215,-5.17439 -2.48035,-3.18992 c -1.36419,-1.75445 -2.48035,-3.29214 -2.48035,-3.41709 0,-0.12494 2.86051,-0.35559 6.35669,-0.51255 3.49618,-0.15695 9.16189,-0.53993 12.59047,-0.85107 3.42858,-0.31112 6.30946,-0.49024 6.40196,-0.39803 0.0925,0.0922 -0.0338,1.32394 -0.28069,2.73718 -0.61748,3.53477 -0.56226,6.59321 0.17636,9.76814 0.34387,1.47813 0.52578,2.78663 0.40424,2.90779 -0.12154,0.12115 -1.93799,0.34974 -4.03657,0.50797 -4.48499,0.33815 -6.40265,1.19241 -6.6076,2.94345 -0.0988,0.84382 1.32366,3.55387 5.9027,11.24593 3.31805,5.57383 6.26738,10.58608 6.55408,11.13834 0.79789,1.53701 0.65939,5.29658 -0.25231,6.84871 -1.4857,2.52933 -2.48294,2.93919 -7.62928,3.13556 -2.8019,0.10691 -4.64687,0.025 -4.64687,-0.20629 z m 37.25,0.0218 c -0.34495,-0.13965 -0.18443,-0.81109 0.55155,-2.30705 l 1.03811,-2.11008 -2.56955,-3.52767 c -1.41325,-1.94022 -2.73941,-3.7675 -2.94701,-4.06063 -0.26582,-0.37533 0.49092,-1.98069 2.55858,-5.42785 l 2.93604,-4.89489 -2.86128,-4.31393 c -1.5737,-2.37266 -2.86128,-4.49662 -2.86128,-4.71991 0,-0.2233 1.33845,-2.93126 2.97435,-6.0177 l 2.97434,-5.61171 -3.17614,-3.34607 c -1.74689,-1.84034 -3.17616,-3.51831 -3.17616,-3.72883 0,-0.23456 3.78958,-0.34104 9.78729,-0.27502 l 9.78729,0.10774 1.04352,7.64453 c 0.57394,4.20448 0.97186,7.78031 0.88428,7.94628 -0.0876,0.16596 -2.60039,0.30175 -5.58401,0.30175 l -5.42478,0 0,17.30077 0,17.30077 -2.72429,-0.0318 c -1.49837,-0.0174 -2.94325,-0.1204 -3.21085,-0.22873 z m -115.9519,-0.39286 c 0,-0.1521 0.48222,-0.9068 1.0716,-1.67711 l 1.0716,-1.40056 -1.72059,-3.46554 c -0.94633,-1.90604 -2.23486,-4.22787 -2.8634,-5.15962 l -1.1428,-1.69408 2.62615,-3.91566 2.62614,-3.91567 -1.50213,-3.24181 c -0.82618,-1.78299 -2.10856,-4.34344 -2.84975,-5.68989 l -1.3476,-2.44808 2.66202,-4.9214 2.66204,-4.92139 -1.27466,-3.63889 c -0.70106,-2.00138 -1.15906,-3.75464 -1.01777,-3.89613 0.14129,-0.14149 2.6047,-0.31693 5.47426,-0.38988 l 5.21737,-0.13261 -0.10395,25.27908 -0.10394,25.27908 -4.74229,0.11336 c -2.60826,0.0623 -4.7423,-0.0111 -4.7423,-0.1632 z m 15.12689,-6.28707 c 0.14104,-3.59594 0.51001,-11.69813 0.81994,-18.00486 0.30993,-6.30674 0.68777,-14.77103 0.83966,-18.80956 l 0.27615,-7.34277 2.26497,0.008 2.26496,0.008 2.5279,4.81257 2.52789,4.81257 -2.20606,2.72295 c -1.21333,1.49762 -2.56997,3.36722 -3.01476,4.15466 l -0.80872,1.43173 2.59639,4.20108 c 1.42801,2.3106 2.60061,4.33 2.60577,4.48757 0.005,0.15756 -1.36433,1.93186 -3.04333,3.94288 -1.679,2.01102 -2.99574,3.8737 -2.9261,4.1393 0.0696,0.26558 1.73988,2.87557 3.71163,5.79997 l 3.585,5.31708 -1.56701,2.42451 -1.567,2.42452 -4.57185,0.003 -4.57185,0.003 0.25642,-6.53808 z m 6.59339,0.40235 c 0.11406,-0.98821 -8.6e-4,-1.10645 -1.07626,-1.10645 -1.33313,0 -1.76219,0.62566 -1.18939,1.73438 0.58875,1.13963 2.11031,0.71793 2.26565,-0.62793 z m -0.7331,-18.17314 c 0,-0.0925 0.10125,-0.43131 0.22501,-0.7528 0.36426,-0.94631 -0.93566,-1.97516 -1.86744,-1.47804 -0.76145,0.40625 -1.04633,1.59632 -0.5101,2.13088 0.29102,0.29012 2.15253,0.37657 2.15253,0.1 z m 1.1452,-18.2906 c 0.2969,-0.18761 0.47852,-0.77326 0.40361,-1.30146 -0.10211,-0.71994 -0.38881,-0.96036 -1.14521,-0.96036 -0.75641,0 -1.0431,0.24042 -1.14521,0.96036 -0.11647,0.8211 0.45626,1.64255 1.14521,1.64255 0.11098,0 0.44471,-0.15349 0.7416,-0.34109 z m 4.10159,42.35853 c 0,-0.14012 0.64662,-1.13289 1.43692,-2.20616 l 1.43694,-1.9514 -1.57884,-2.32711 c -0.86836,-1.27991 -2.51637,-3.82278 -3.66224,-5.65082 l -2.0834,-3.3237 3.18839,-4.22172 3.18839,-4.22171 -2.56299,-4.47773 c -2.04,-3.56403 -2.48151,-4.62951 -2.16368,-5.22153 0.21962,-0.40908 1.57525,-2.1482 3.0125,-3.8647 1.43727,-1.7165 2.61321,-3.26543 2.61321,-3.44206 0,-0.17663 -1.09238,-2.24314 -2.42751,-4.59224 -1.33513,-2.34909 -2.37945,-4.30211 -2.3207,-4.34003 0.0588,-0.0379 4.82893,0.0651 10.6004,0.22886 5.77147,0.16379 11.79751,0.31287 13.39119,0.33128 l 2.89761,0.0335 -0.71508,2.51464 c -0.39329,1.38306 -1.03867,4.1894 -1.43418,6.23633 l -0.7191,3.72167 -7.01292,0 -7.01292,0 0,2.81641 0,2.8164 2.57801,0 2.57803,0 0.2682,5.73339 c 0.1475,3.15337 0.36397,6.2313 0.48104,6.83984 l 0.21284,1.10644 -3.26086,0 -3.26086,0 0,2.55706 0,2.55705 2.7243,0.25649 c 1.49836,0.14107 5.03994,0.25778 7.87019,0.25935 3.85422,0.002 5.1421,0.1291 5.13079,0.50579 -0.008,0.27661 -0.71392,2.94717 -1.56802,5.93457 l -1.55291,5.43163 -10.13637,0.1075 c -5.575,0.0591 -10.13637,-0.007 -10.13637,-0.14727 z m 102.91786,-0.34748 c 0,-0.10234 0.3583,-1.14341 0.79623,-2.31347 1.26822,-3.38851 4.55394,-13.81823 9.53573,-30.26885 2.54275,-8.39656 4.66952,-15.31266 4.72614,-15.36911 0.0566,-0.0565 1.09047,-0.15715 2.29741,-0.22376 l 2.19443,-0.12111 0.95129,2.36464 c 0.5232,1.30056 0.85295,2.75521 0.73278,3.23256 -0.12019,0.47735 -2.04109,3.08413 -4.26867,5.79283 -2.67721,3.25544 -4.05016,5.25804 -4.05016,5.90763 0,0.54048 0.94598,2.80959 2.10217,5.04245 1.65719,3.20041 2.01178,4.20389 1.67517,4.74067 -0.23485,0.3745 -2.28943,2.21988 -4.56574,4.10084 -2.2763,1.88095 -4.32012,3.75391 -4.54181,4.16212 -0.29336,0.5402 -0.054,2.27504 0.87941,6.37383 0.70536,3.09739 1.20698,5.70687 1.11471,5.79886 -0.49423,0.49269 -9.57909,1.23233 -9.57909,0.77987 z m 6.19995,-4.03852 c 0.52289,-1.35841 -0.94762,-2.64992 -2.01331,-1.76823 -0.58319,0.4825 -0.74131,1.6488 -0.28518,2.10351 0.50135,0.4998 2.06483,0.27173 2.29849,-0.33528 z m 7.03741,-18.94536 c 0.14357,-1.00174 -0.872,-1.95988 -1.72964,-1.6318 -0.62147,0.23774 -0.8446,1.90308 -0.32444,2.42162 0.56962,0.56785 1.93473,0.043 2.05408,-0.78982 z m 5.12642,-20.48981 c 0,-1.01339 -0.15799,-1.20152 -1.009,-1.20152 -0.75641,0 -1.0431,0.24042 -1.14521,0.96036 -0.14514,1.02326 0.55369,1.72184 1.54881,1.54827 0.37933,-0.0662 0.6054,-0.55425 0.6054,-1.30711 z m 15.94217,42.66319 c 0,-1.93185 -1.54897,-2.42791 -7.44909,-2.38554 -5.48111,0.0394 -8.02879,0.62268 -8.54194,1.95575 -0.18705,0.48595 -0.91552,0.62169 -3.33642,0.62169 l -3.09711,0 -1.16635,-5.44384 -1.16635,-5.44384 5.14658,-5.18524 5.14659,-5.18524 -2.25254,-4.28157 c -1.2389,-2.35487 -2.25254,-4.50645 -2.25254,-4.7813 0,-0.27485 1.54988,-2.39146 3.44418,-4.70359 1.8943,-2.31213 3.91427,-4.87984 4.48882,-5.70602 l 1.04465,-1.50216 -1.03285,-2.7778 -1.03285,-2.7778 1.08452,-0.21484 c 2.56268,-0.50766 14.25645,-1.18601 14.55875,-0.84455 0.34798,0.39306 13.82691,47.31453 13.64418,47.4967 -0.22848,0.22776 -14.272,2.15256 -15.71673,2.15413 -1.34201,0.002 -1.5135,-0.11127 -1.5135,-0.99494 z m -4.43959,-16.66328 c 0,-0.1975 -0.63567,-3.32057 -1.4126,-6.94015 -0.77692,-3.61959 -1.42411,-6.76224 -1.43818,-6.98368 -0.0814,-1.28125 -3.60035,12.16875 -3.60527,13.78 -10e-4,0.36056 0.91247,0.50293 3.22726,0.50293 1.77584,0 3.22879,-0.1616 3.22879,-0.3591 z m -198.64567,15.14521 c 1.98856,-3.51412 1.98566,-3.5841 -0.29727,-7.16873 -1.127271,-1.77003 -2.049592,-3.37359 -2.049592,-3.56345 0,-0.18987 0.964472,-1.97229 2.143272,-3.96094 2.55642,-4.31272 4.46637,-8.98432 5.77533,-14.12602 0.7937,-3.11771 0.96136,-4.79536 0.96503,-9.65624 0.003,-3.23564 0.11702,-6.56193 0.25461,-7.39176 l 0.25016,-1.50879 8.62458,0 c 6.00705,0 8.62458,0.13442 8.62458,0.44289 0,0.65581 -2.36444,8.62854 -3.29138,11.09831 l -0.80261,2.13847 -6.22679,0 -6.22679,0 0,3.21875 0,3.21875 3.63239,0 c 3.18905,0 3.63282,0.0859 3.63585,0.7041 0.006,1.27034 0.78387,9.9291 1.00752,11.21844 l 0.21865,1.26045 -4.02523,0.16117 c -2.21387,0.0886 -4.13859,0.27418 -4.27714,0.4123 -0.13856,0.13812 -0.35683,3.34233 -0.48504,7.12045 -0.1972,5.81072 -0.33253,6.89992 -0.87816,7.06786 -1.14972,0.35388 -6.53222,1.4263 -7.158637,1.4263 -0.467947,0 -0.332343,-0.48826 0.586667,-2.11231 z m 144.82,0.24561 c -0.14116,-1.02669 -0.25666,-8.54046 -0.25666,-16.69726 l 0,-14.83055 -4.43959,0 c -3.2804,0 -4.44067,-0.13131 -4.44373,-0.50292 -0.005,-0.64835 -1.93902,-13.09123 -2.21968,-14.28319 l -0.21316,-0.90528 7.02733,0 7.02734,0 3.77664,3.58536 c 3.48408,3.30761 3.73697,3.65098 3.2646,4.43237 -0.28163,0.46585 -1.70383,3.10477 -3.16045,5.86427 l -2.6484,5.01727 3.06549,4.45004 3.06549,4.45005 -1.09772,1.8923 c -0.60374,1.04076 -1.87775,3.11627 -2.83113,4.61223 -0.95339,1.49597 -1.73343,2.93322 -1.73343,3.1939 0,0.26068 1.28289,2.15327 2.85087,4.20575 l 2.85088,3.73177 -1.07303,1.8253 -1.07303,1.82529 -3.74099,0 -3.74098,0 z m 5.94329,-1.95556 c 0.49079,-1.27499 -0.68319,-2.44531 -1.96215,-1.95605 -0.60891,0.23293 -0.83769,1.79154 -0.33633,2.29133 0.50135,0.4998 2.06482,0.27173 2.29848,-0.33528 z m -0.81801,-16.36177 c 0.51939,-0.82226 -0.27034,-1.94486 -1.36816,-1.94486 -0.92593,0 -1.41454,1.45667 -0.75454,2.24945 0.61065,0.73351 1.55231,0.59838 2.1227,-0.30459 z m -2.21873,-19.59904 c 0.2969,-0.18761 0.47851,-0.77327 0.4036,-1.30146 -0.18743,-1.32147 -2.16194,-1.60023 -2.55651,-0.36093 -0.45806,1.43873 0.87629,2.46906 2.15291,1.66239 z m -157.334469,18.05652 -2.76e-4,-11.46678 2.016268,-0.11327 c 1.547445,-0.0869 2.016272,0.0228 2.016272,0.47208 0,0.32195 1.089716,2.18189 2.421598,4.13321 1.331878,1.95131 2.419039,3.821 2.415918,4.15486 -0.01198,1.27983 -5.072998,9.6878 -7.873069,13.07966 l -0.996431,1.20703 z m 5.565941,-0.88515 c 0.726425,-0.72417 0.583827,-1.84985 -0.29364,-2.31799 -1.157082,-0.61733 -2.047236,-0.0951 -2.047236,1.20095 0,1.46537 1.34678,2.10804 2.340876,1.11704 z m -24.840118,9.11471 c 0.164963,-0.86027 -0.04202,-1.14561 -1.292179,-1.78141 -5.126804,-2.60736 -7.044309,-9.32158 -4.167146,-14.59143 1.880967,-3.4452 4.951371,-5.13405 9.333943,-5.13405 2.267829,0 3.198571,0.21052 4.957057,1.12123 3.674145,1.90281 5.909067,6.1478 5.472691,10.39481 -0.54773,5.3308 -5.055928,9.37636 -10.471597,9.39698 -2.048676,0.008 -2.320697,0.10316 -2.320697,0.81353 0,0.55123 -0.269067,0.80468 -0.85425,0.80468 -0.697678,0 -0.818247,-0.18774 -0.657822,-1.02434 z m 9.584061,-7.2237 c 0,-0.36152 -0.372207,-0.60351 -0.92828,-0.60351 -1.227322,0 -1.896916,-0.72114 -1.896916,-2.04293 0,-1.56836 0.980091,-2.24373 2.452209,-1.6898 0.735101,0.27661 1.266123,0.29852 1.414987,0.0584 0.455851,-0.73529 -0.743094,-1.55614 -2.272924,-1.55614 -1.178311,0 -1.730349,0.24671 -2.372178,1.06012 -1.076402,1.36417 -1.090181,3.5151 -0.02929,4.57269 0.988255,0.98518 3.632394,1.13162 3.632394,0.20117 z m -7.255007,-4.16221 c 0.967672,-3.48109 0.965601,-3.28114 0.03397,-3.28114 -0.484888,0 -0.859206,0.38035 -1.025898,1.04244 -0.182323,0.72417 -0.452205,0.96985 -0.883962,0.80469 -0.34183,-0.13077 -0.799893,-0.23776 -1.017917,-0.23776 -0.218025,0 -0.339386,-0.58305 -0.26969,-1.29566 0.091,-0.93045 -0.05418,-1.33222 -0.515033,-1.42532 -0.485206,-0.098 -0.818155,0.53701 -1.364914,2.60329 -0.93808,3.54513 -0.93568,3.4643 -0.108216,3.64457 0.525122,0.11441 0.776579,-0.17553 0.96447,-1.11206 0.226264,-1.1278 0.369671,-1.23791 1.306854,-1.00342 1.349714,0.3377 1.302021,0.24503 0.880395,1.71058 -0.29667,1.03121 -0.240828,1.28518 0.309602,1.40808 0.369356,0.0825 0.721365,0.11853 0.78224,0.0801 0.06088,-0.0384 0.469521,-1.36069 0.908097,-2.93843 z m 24.88624,-5.26489 c -1.097689,-1.64563 -1.77886,-3.0695 -1.64045,-3.42907 0.130182,-0.3382 1.116392,-1.25865 2.191576,-2.04545 1.075186,-0.7868 2.342546,-2.05585 2.816356,-2.82012 0.47382,-0.76426 0.96414,-1.38957 1.08959,-1.38957 0.7838,0 -1.30342,11.2013 -2.27029,12.18376 -0.1703,0.17305 -1.154353,-0.95175 -2.186782,-2.49955 z m -10.328006,-3.62538 c -0.293791,-0.181 -0.424124,-0.6605 -0.293532,-1.07989 0.184082,-0.59119 -0.202338,-0.99525 -1.786656,-1.86826 -5.138852,-2.83165 -6.681839,-10.54737 -3.056756,-15.28539 2.446473,-3.19756 5.561356,-4.56809 9.567315,-4.20957 5.279935,0.47253 9.069547,4.26576 9.551137,9.56021 0.56639,6.22683 -4.021598,11.317 -10.286604,11.41255 -2.084492,0.0318 -2.522458,0.1566 -2.522497,0.71882 -6e-5,0.85888 -0.489232,1.17244 -1.172407,0.75153 z m 10.481089,-8.77783 c 0.481006,-1.91309 0.630698,-2.10555 1.564669,-2.01171 0.66506,0.0668 1.03278,-0.0965 1.03278,-0.45864 0,-0.56359 -4.813818,-2.14917 -5.23876,-1.72555 -0.484958,0.48345 -0.154743,1.28209 0.530104,1.28209 1.168688,0 1.20797,0.26468 0.445883,3.00443 -0.667299,2.39901 -0.670406,2.59177 -0.04386,2.72431 0.836625,0.17698 1.041962,-0.16119 1.709187,-2.81493 z m -6.647098,-1.32551 c 0.630146,-2.23883 0.769495,-2.42532 1.728688,-2.31347 0.68473,0.0798 1.084906,-0.0903 1.164374,-0.49493 0.08846,-0.45052 -0.579617,-0.80272 -2.480354,-1.30762 -3.163991,-0.84046 -3.074339,-0.839 -3.074339,-0.0498 0,0.35265 0.363238,0.73587 0.807199,0.85161 0.953461,0.24856 0.995595,0.87724 0.227833,3.39916 -0.313852,1.03091 -0.463233,1.98144 -0.331965,2.1123 0.705693,0.7035 1.343527,-0.0121 1.958564,-2.19721 z m -6.735544,-0.68302 c 0.218236,-0.82984 0.507566,-1.9678 0.64295,-2.52881 0.186448,-0.77262 0.500468,-1.01658 1.294661,-1.00586 1.965868,0.0265 1.379998,-0.87143 -1.00353,-1.53812 -1.298944,-0.36334 -2.576827,-0.66061 -2.83974,-0.66061 -0.798895,0 -0.533522,1.13525 0.32918,1.4082 0.963016,0.3047 0.988649,0.67928 0.220563,3.22349 -0.322651,1.06875 -0.493551,2.09332 -0.379783,2.27683 0.499403,0.80554 1.36978,0.21626 1.735699,-1.17512 z m 20.417461,-10.56512 c -0.13842,-0.22327 -0.14359,-0.74542 -0.0115,-1.16033 0.17742,-0.55724 -0.003,-0.81527 -0.69107,-0.98738 -1.53091,-0.38304 -4.20565,-2.95075 -5.19944,-4.99136 -1.440397,-2.95768 -1.320432,-6.87619 0.29901,-9.76682 4.07386,-7.27166 14.7431,-7.18566 18.49352,0.14908 3.22165,6.30061 -0.17289,13.77244 -6.88837,15.16223 -1.2599,0.26074 -3.03449,0.36232 -3.94353,0.22573 -1.05708,-0.15884 -1.44977,-0.11591 -1.08949,0.1191 0.30982,0.2021 0.45174,0.65731 0.31537,1.01157 -0.2804,0.72843 -0.90838,0.84487 -1.28451,0.23818 z m 9.00793,-9.35296 c 0.52658,-2.15082 0.64699,-2.3114 1.73319,-2.3114 1.97806,0 1.40973,-1.10408 -0.92396,-1.79496 -1.15019,-0.3405 -2.42152,-0.6191 -2.82519,-0.6191 -0.9957,0 -0.93535,1.22986 0.0733,1.4928 0.9578,0.24968 0.95026,0.14831 0.21549,2.90061 -0.62637,2.34623 -0.5123,2.96476 0.51055,2.76839 0.42195,-0.081 0.84976,-0.93767 1.21667,-2.43634 z m -6.61274,-1.26688 c 0.34872,-1.19582 0.63404,-2.36815 0.63404,-2.60517 0,-0.26737 0.47509,-0.33622 1.25168,-0.18139 1.06824,0.21298 1.23057,0.1403 1.10766,-0.49594 -0.13525,-0.70012 -1.0583,-1.09844 -4.47824,-1.93246 -0.93398,-0.22776 -1.1099,-0.1419 -1.1099,0.54168 0,0.4468 0.13622,0.81513 0.3027,0.81852 0.16648,0.003 0.54257,0.15778 0.83575,0.34309 0.43653,0.27592 0.41042,0.75747 -0.14417,2.65925 -0.56459,1.93609 -0.58612,2.37987 -0.12945,2.66832 0.9266,0.5853 1.07519,0.42933 1.72993,-1.8159 z m -5.00342,-0.74276 c 0.2462,-0.94048 0.64947,-2.40315 0.89614,-3.25037 0.36506,-1.25382 0.34098,-1.60824 -0.12939,-1.90497 -0.31784,-0.20051 -0.68561,-0.36733 -0.81727,-0.37072 -0.13166,-0.003 -0.64476,1.46844 -1.14023,3.27074 -0.7322,2.6634 -0.80072,3.34018 -0.36602,3.61493 0.90603,0.57264 1.09388,0.40858 1.55677,-1.35961 z m 32.83339,8.65038 c 0.36695,-1.23526 1.86323,-7.26652 1.86323,-7.51039 0,-0.12909 -0.63567,-0.23472 -1.4126,-0.23472 -1.14353,0 -1.4126,-0.15327 -1.4126,-0.80468 0,-0.7536 0.26907,-0.80469 4.2378,-0.80469 3.96872,0 4.23779,0.0511 4.23779,0.80469 0,0.66926 -0.26907,0.80468 -1.59884,0.80468 -1.54192,0 -1.61474,0.0609 -2.04517,1.70996 -0.4639,1.77731 -0.93989,3.73691 -1.3682,5.63281 -0.20571,0.91055 -0.46778,1.10644 -1.48027,1.10644 -0.98234,0 -1.18815,-0.14191 -1.02114,-0.7041 z m 16.79285,0.40235 c -0.002,-0.16597 0.4975,-2.42783 1.1099,-5.02636 1.08763,-4.61501 1.13919,-4.72466 2.22335,-4.72753 0.61045,-0.002 1.1101,0.13285 1.11035,0.29882 2.4e-4,0.16596 -0.49459,2.42915 -1.09964,5.02929 -1.07881,4.63617 -1.12171,4.72753 -2.22024,4.72753 -0.61609,0 -1.12176,-0.13579 -1.12372,-0.30175 z m 15.74394,0.0696 c 0,-0.15709 0.66601,-2.4323 1.48004,-5.05602 1.42304,-4.58664 1.52304,-4.77039 2.5962,-4.77039 1.19058,0 1.34733,0.26429 1.78967,3.01757 0.51089,3.17998 0.52796,3.17996 2.66459,-0.005 1.75885,-2.62151 2.17736,-3.01294 3.22136,-3.01294 1.12877,0 1.18715,0.0775 0.98488,1.30761 -0.11826,0.71919 -0.40488,2.48447 -0.63694,3.92285 -0.79389,4.92098 -0.75557,4.82812 -1.9926,4.82812 l -1.12945,0 0.56529,-2.68838 c 0.31091,-1.47861 0.50889,-2.85706 0.43995,-3.06323 -0.0689,-0.20617 -0.81067,0.73202 -1.6483,2.08487 -1.1643,1.88044 -1.74584,2.45971 -2.46936,2.45971 -0.83632,0 -0.97964,-0.24568 -1.23221,-2.1123 -0.1572,-1.16177 -0.38723,-2.2814 -0.51117,-2.48807 -0.12395,-0.20667 -0.60742,0.97019 -1.07438,2.61524 -0.76848,2.70723 -0.95332,3.00307 -1.9483,3.1183 -0.6046,0.07 -1.09927,-10e-4 -1.09927,-0.15831 z m 23.41917,-0.27076 c 0.006,-0.27661 0.51609,-2.49453 1.13415,-4.9287 l 1.12375,-4.42578 3.30544,-0.11686 c 3.09652,-0.10947 3.30544,-0.065 3.30544,0.7041 0,0.72745 -0.25431,0.82096 -2.2328,0.82096 -1.94474,0 -2.27708,0.1168 -2.57601,0.90527 -0.4891,1.2901 -0.22112,1.50879 1.84882,1.50879 1.50797,0 1.79183,0.11358 1.59057,0.63642 -0.13473,0.35003 -0.24498,0.71214 -0.24498,0.80469 0,0.0925 -0.88691,0.16827 -1.97092,0.16827 -1.70275,0 -2.00404,0.12317 -2.21428,0.90527 -0.47918,1.78245 -0.34684,1.91113 1.96541,1.91113 1.95073,0 2.21979,0.0975 2.21979,0.80469 0,0.74508 -0.26906,0.80468 -3.63239,0.80468 -2.6424,0 -3.62956,-0.13707 -3.62199,-0.50293 z m 34.30247,0.20118 c 0.003,-0.16597 0.36393,-1.65967 0.80028,-3.31934 1.15496,-4.3929 1.10379,-4.82812 -0.56762,-4.82812 -1.17611,0 -1.3443,-0.1163 -1.16372,-0.80468 0.19411,-0.73997 0.55052,-0.80469 4.4314,-0.80469 3.80148,0 4.20698,0.0699 4.08591,0.7041 -0.0925,0.48468 -0.63241,0.76679 -1.7325,0.90527 l -1.5981,0.20117 -1.00214,4.12402 c -0.97437,4.00968 -1.03346,4.12402 -2.13129,4.12402 -0.62103,0 -1.12603,-0.13579 -1.12222,-0.30175 z m 17.83334,-4.59901 c 0.6507,-2.71898 1.27726,-5.03707 1.39235,-5.1513 0.11508,-0.11423 1.30493,-0.20098 2.64412,-0.19277 2.16796,0.0133 2.54348,0.14078 3.42556,1.16307 1.22165,1.41584 1.00984,2.82603 -0.63219,4.20888 l -1.14122,0.96111 0.7455,1.95588 0.7455,1.95589 -1.19027,0 c -1.0226,0 -1.30344,-0.25504 -1.99366,-1.81054 -1.02834,-2.3175 -1.90478,-2.35503 -2.34902,-0.10059 -0.30134,1.52925 -0.46867,1.72286 -1.58335,1.83196 l -1.24641,0.12201 z m 5.59659,-1.36929 c 0.7101,-0.85296 0.0244,-1.93762 -1.32774,-2.10022 -0.98836,-0.11886 -1.50252,0.63699 -1.52003,2.23453 -0.008,0.72838 2.21692,0.62345 2.84777,-0.13431 z m 13.08213,5.76712 c 0.0933,-0.27661 0.64832,-2.53979 1.23334,-5.02929 1.05664,-4.49656 1.07143,-4.52636 2.24692,-4.52636 1.31886,0 1.31128,-0.38009 0.0923,4.62695 -1.37244,5.63751 -1.27541,5.43163 -2.55971,5.43163 -0.76749,0 -1.12302,-0.17652 -1.01288,-0.50293 z m 13.93095,0.18211 c 0,-0.41303 4.72954,-8.10649 5.55343,-9.03366 0.34412,-0.38725 1.12149,-0.7041 1.72749,-0.7041 1.07351,0 1.11372,0.0852 1.56547,3.31933 1.05639,7.56268 1.0961,6.73925 -0.32498,6.73925 -1.07132,0 -1.25662,-0.14831 -1.25662,-1.00586 0,-0.93937 -0.13395,-1.00585 -2.02665,-1.00585 -1.77009,0 -2.08484,0.12733 -2.48638,1.00585 -0.33326,0.72916 -0.77499,1.00586 -1.60575,1.00586 -0.6303,0 -1.14601,-0.14437 -1.14601,-0.32082 z m 6.84836,-5.61374 c -0.0121,-1.80327 -0.048,-1.86572 -0.63616,-1.10645 -0.34283,0.44258 -0.88657,1.30259 -1.20833,1.91113 -0.57723,1.09174 -0.56877,1.10645 0.63616,1.10645 1.18956,0 1.22083,-0.0495 1.20833,-1.91113 z m 14.29755,5.2466 c 0.12287,-0.39613 0.60151,-2.34973 1.06364,-4.34133 1.22127,-5.26311 1.1067,-5.02929 2.46442,-5.02929 0.96375,0 1.16812,0.14366 1.00163,0.7041 -0.36695,1.23526 -1.86323,7.26651 -1.86323,7.51039 0,0.12909 1.01223,0.23472 2.24939,0.23472 1.92465,0 2.2299,0.10165 2.11436,0.7041 -0.11435,0.59619 -0.68053,0.72199 -3.69433,0.82082 -3.26282,0.107 -3.54068,0.0567 -3.33588,-0.60351 z"
       id="path4276"
       inkscape:connector-curvature="0"
       sodipodi:nodetypes="sssssssssssssssssssssssscsssssssscsssssssssscsssssscssscccccssscssssssssssssssssssccsscccssccssssssssssscssscscscscscsssssssscssccssssssscssssssscssssscscssssssscscssscssscssscsssccccccsscsscccsscccscscccsscsscccccsscscscscccccccssssssssssssssssscsscccssssscsscsscccccccsscccccsscscsssssscscscssssssscsssssssssssssssssscccccsssscccssscsssscssssssscscssscccccscscscsssssscscscccssscccsssscccccsssssssssssssccssscsccsssssssssssssssssssssssssssssssssssccssssssssssssssssssssssssssscssssssssssssssscccsssssssccssssssssssssssccsssssccsssssssssssssscscssscssssssssscscssscsssscscssssssssssssccsssssscsscscssscccsssscssscsssssssssssssssssssssscsssssssc" />
  </g>
</svg>
